<svg width="40" height="40" viewBox="0 0 40 40" fill="none" xmlns="http://www.w3.org/2000/svg">
            <g clip-path="url(#clip0_166_1339)">
              <path d="M33.8666 28.8398C34.4324 28.8398 34.975 28.6206 35.3751 28.2305C35.7751 27.8404 35.9999 27.3113 35.9999 26.7597V20.5193C35.9999 19.8537 35.7297 19.2158 35.2461 18.7457L31.7333 15.3204M33.8666 28.8398H6.13333M33.8666 28.8398V30.9199C33.8666 31.4716 33.6418 32.0007 33.2417 32.3907C32.8417 32.7808 32.299 33 31.7333 33C31.1675 33 30.6248 32.7808 30.2248 32.3907C29.8247 32.0007 29.5999 31.4716 29.5999 30.9199V28.8398H33.8666ZM31.7333 15.3204H8.26665M31.7333 15.3204L29.2828 8.94144C29.0607 8.37103 28.6661 7.8799 28.1513 7.53317C27.6364 7.18645 27.0257 7.00051 26.3999 7H13.6C12.974 6.99953 12.3628 7.18509 11.8478 7.53195C11.3327 7.8788 10.9383 8.37047 10.7171 8.94144L8.26665 15.3204M31.7333 15.3204L33.8666 13.2403H35.9999M8.26665 15.3204L4.75378 18.7457C4.27022 19.2172 4 19.8551 4 20.5193V26.7597C4 27.3113 4.22476 27.8404 4.62484 28.2305C4.82293 28.4237 5.05811 28.5769 5.31694 28.6814C5.57577 28.786 5.85317 28.8398 6.13333 28.8398M8.26665 15.3204L6.13333 13.2403H4M6.13333 28.8398V30.9199C6.13333 31.4716 6.35809 32.0007 6.75816 32.3907C7.15824 32.7808 7.70086 33 8.26665 33C8.83245 33 9.37507 32.7808 9.77515 32.3907C10.1752 32.0007 10.4 31.4716 10.4 30.9199V28.8398H6.13333Z" stroke="#2E2E2E" stroke-width="2" stroke-linecap="round" stroke-linejoin="round" />
              <path d="M4 21.4453H10.5606C11.7572 21.4453 12.7272 22.4154 12.7272 23.612V23.612C12.7272 24.8086 11.7572 25.7786 10.5606 25.7786H4V21.4453Z" stroke="#2E2E2E" stroke-width="2" stroke-linecap="round" stroke-linejoin="round" />
              <path d="M33.7137 11.1118C34.7024 10.9035 35.7301 10.9876 36.6721 11.3531C36.9521 11.4618 37.1587 11.7042 37.2207 11.9981C37.2826 12.292 37.1917 12.5973 36.9794 12.8097L35.4846 14.3045V15.5164H36.6964L38.1912 14.0215L38.2754 13.9478C38.4801 13.789 38.7457 13.7261 39.0029 13.7802C39.2969 13.8423 39.5401 14.0486 39.6487 14.3288C40.0135 15.2707 40.0961 16.2982 39.8874 17.2864C39.6787 18.2745 39.1869 19.1802 38.4725 19.8941C37.7588 20.608 36.8533 21.0994 35.8656 21.3081C35.0725 21.4757 34.2542 21.4557 33.475 21.2526L26.2526 28.4749C26.4562 29.2543 26.4773 30.073 26.3099 30.8665C26.1014 31.8547 25.6101 32.761 24.8958 33.475C24.1813 34.1892 23.2741 34.6802 22.2855 34.8883C21.2969 35.0963 20.2689 35.0125 19.3271 34.6469C19.0474 34.5382 18.8413 34.2957 18.7794 34.002C18.7175 33.708 18.8084 33.4027 19.0207 33.1903L20.5155 31.6955V30.4837H19.3037L17.8106 31.9785C17.5982 32.191 17.2921 32.2817 16.9981 32.2198C16.7042 32.1578 16.4618 31.9512 16.3531 31.6712C15.9876 30.7293 15.9035 29.7014 16.1118 28.7128C16.3201 27.7242 16.8114 26.8177 17.5259 26.1034C18.2405 25.389 19.1475 24.8974 20.1362 24.6893C20.9296 24.5223 21.7485 24.5436 22.5277 24.7474L29.7475 17.5277C29.5435 16.7485 29.5232 15.9297 29.6902 15.1362C29.8983 14.1474 30.389 13.2404 31.1034 12.5259C31.8179 11.8113 32.7249 11.3201 33.7137 11.1118ZM34.4811 12.7932C34.3469 12.8053 34.2128 12.8234 34.08 12.8514C33.4287 12.9886 32.831 13.3122 32.3604 13.7828C31.8898 14.2535 31.5668 14.8513 31.4298 15.5025C31.2928 16.1537 31.3477 16.831 31.5887 17.4513C31.716 17.7795 31.6378 18.1519 31.389 18.401L23.4019 26.3881C23.1527 26.6372 22.7798 26.7162 22.4513 26.5886C21.8309 26.3477 21.1538 26.2919 20.5025 26.4289C19.8511 26.566 19.2536 26.8898 18.7829 27.3603C18.3122 27.8308 17.9887 28.428 17.8514 29.0791C17.8235 29.2115 17.8053 29.3455 17.7933 29.4793L18.3072 28.9663L18.3723 28.9072C18.5304 28.7776 18.7293 28.7058 18.9356 28.7058H21.4044C21.8954 28.7058 22.2933 29.1038 22.2933 29.5948V32.0635C22.2933 32.2992 22.1996 32.5254 22.0329 32.692L21.5182 33.2059C21.6524 33.1939 21.7864 33.1766 21.9192 33.1486C22.5705 33.0116 23.1682 32.6885 23.6389 32.2181C24.1095 31.7476 24.433 31.1503 24.5703 30.4993C24.7076 29.8483 24.6528 29.1716 24.4123 28.5513C24.285 28.223 24.3638 27.8498 24.6128 27.6008L32.6017 19.6128L32.7007 19.5277C32.943 19.3478 33.2634 19.3014 33.5505 19.4123C34.1707 19.6521 34.8478 19.7069 35.4984 19.5694C36.1491 19.4319 36.7462 19.1074 37.2164 18.6371C37.687 18.1669 38.0112 17.57 38.1487 16.9192C38.1766 16.787 38.1938 16.6535 38.206 16.5199L37.6929 17.0338C37.5262 17.2004 37.3002 17.2942 37.0644 17.2942H34.5957C34.1048 17.2942 33.7068 16.8961 33.7067 16.4053V13.9365C33.7068 13.7007 33.8005 13.4747 33.9672 13.308L34.4811 12.7932Z" fill="#E8683B" stroke="white" stroke-width="4" stroke-linejoin="round" />
              <path d="M37.8445 19.2662C38.4372 18.6741 38.8449 17.9226 39.018 17.103C39.1912 16.2834 39.1223 15.4311 38.8197 14.65L37.0643 16.4051H34.5955V13.9366L36.3508 12.1814C35.5696 11.8782 34.7169 11.8087 33.8969 11.9815C33.0768 12.1542 32.3247 12.5617 31.7321 13.1543C31.1396 13.7469 30.7322 14.499 30.5596 15.3191C30.387 16.1391 30.4567 16.9916 30.7601 17.7727L22.7734 25.7598C21.9922 25.4564 21.1396 25.3868 20.3195 25.5593C19.4993 25.7319 18.7471 26.1392 18.1545 26.7317C17.5618 27.3242 17.1542 28.0762 16.9815 28.8962C16.8087 29.7162 16.8782 30.5687 17.1814 31.3499L18.9355 29.5947H21.4044V32.0633L19.649 33.8185C20.4301 34.1217 21.2825 34.1912 22.1025 34.0187C22.9224 33.8462 23.6745 33.439 24.2671 32.8467C24.8597 32.2544 25.2673 31.5026 25.4402 30.6828C25.6131 29.8631 25.5439 29.0107 25.241 28.2296L33.2302 20.2413C34.0111 20.5433 34.863 20.6119 35.6822 20.4388C36.5013 20.2657 37.2526 19.8583 37.8445 19.2662Z" fill="white" stroke="#E8683B" stroke-width="2" stroke-linejoin="round" />
            </g>
            <defs>
              <clipPath id="clip0_166_1339">
                <rect width="40" height="40" fill="white" />
              </clipPath>
            </defs>
          </svg>